<?xml version="1.0" standalone="no"?>
<!DOCTYPE svg PUBLIC "-//W3C//DTD SVG 20010904//EN"
 "http://www.w3.org/TR/2001/REC-SVG-20010904/DTD/svg10.dtd">
<svg version="1.0" xmlns="http://www.w3.org/2000/svg"
 width="700.000000pt" height="700.000000pt" viewBox="0 0 700.000000 700.000000"
 preserveAspectRatio="xMidYMid meet">
<metadata>
Created by potrace 1.14, written by Peter Selinger 2001-2017
</metadata>
<g transform="translate(0.000000,700.000000) scale(0.100000,-0.100000)"
fill="#000000" stroke="none">
<path d="M3278 6995 c-1 -1 -42 -5 -89 -9 -47 -4 -95 -8 -106 -10 -11 -3 -44
-7 -74 -11 -383 -46 -843 -201 -1224 -413 -73 -41 -314 -195 -353 -227 -10 -7
-66 -52 -127 -100 -343 -274 -647 -634 -867 -1030 -49 -87 -148 -289 -148
-301 0 -2 -9 -23 -20 -47 -57 -123 -157 -435 -186 -582 -2 -11 -10 -54 -19
-95 -29 -147 -36 -200 -52 -370 -15 -164 -8 -592 12 -711 2 -13 6 -46 9 -74 9
-78 22 -152 51 -285 21 -96 91 -339 114 -395 5 -11 25 -65 46 -120 63 -166
249 -531 312 -610 4 -6 34 -49 65 -95 171 -256 432 -534 708 -755 92 -74 370
-265 386 -265 4 0 15 -6 23 -14 9 -7 81 -47 161 -88 354 -181 736 -303 1109
-354 25 -3 57 -8 71 -10 163 -25 682 -25 842 1 13 2 46 7 73 10 71 10 87 13
115 18 14 3 43 8 65 12 104 19 292 68 435 115 178 57 568 235 660 300 15 11
33 20 39 20 6 0 11 5 11 10 0 6 5 10 10 10 15 0 220 141 330 227 152 118 324
280 450 422 36 41 70 79 76 85 6 6 48 61 94 121 150 197 277 405 383 628 26
53 47 99 47 102 0 2 11 28 24 57 57 127 151 421 182 573 17 81 54 301 59 350
4 33 9 71 11 85 9 47 11 525 3 605 -15 165 -21 220 -24 225 -2 3 -6 30 -10 60
-9 75 -69 337 -99 435 -175 575 -470 1068 -891 1488 -378 377 -841 664 -1350
835 -168 57 -420 119 -555 137 -19 3 -46 7 -60 10 -13 2 -52 7 -86 11 -33 3
-74 8 -90 10 -32 5 -540 14 -546 9z m497 -468 c11 -2 42 -8 68 -11 50 -8 57
-9 117 -20 287 -52 589 -176 855 -352 238 -157 428 -335 598 -563 153 -204
277 -441 356 -678 22 -65 68 -239 76 -282 2 -14 7 -42 10 -61 24 -137 30 -216
30 -405 0 -189 -4 -243 -25 -385 -53 -364 -223 -758 -462 -1073 -42 -55 -65
-77 -77 -74 -9 3 -70 21 -136 41 -66 21 -138 41 -160 46 -22 5 -71 16 -110 25
-121 28 -124 29 -275 54 -63 11 -135 22 -160 25 -25 3 -61 8 -80 10 -19 2 -64
8 -100 12 -36 4 -76 8 -90 10 -14 2 -53 4 -87 6 -35 1 -63 6 -63 10 0 5 4 8 8
8 13 0 140 128 181 183 323 431 216 1043 -234 1342 -173 115 -348 162 -561
152 -180 -8 -322 -55 -469 -152 -412 -274 -541 -809 -300 -1241 60 -108 171
-233 258 -291 42 -29 42 -32 1 -37 -413 -53 -787 -145 -1089 -268 l-99 -41
-54 59 c-119 132 -275 367 -354 534 -112 236 -190 494 -214 701 -3 30 -9 79
-14 109 -9 59 -6 442 4 500 3 19 8 58 11 85 4 28 11 66 16 86 5 20 11 49 13
65 7 60 61 237 110 368 63 166 258 508 343 601 10 11 43 49 73 85 108 126 221
232 360 338 126 96 107 83 235 159 281 169 634 287 955 319 36 3 67 8 69 10 6
5 442 -3 466 -9z"/>
</g>
</svg>
